HIERARCHY
ROOT Hips
{
	OFFSET 0.000000 0.000000 0.000000
	CHANNELS 6 Xposition Yposition Zposition Zrotation Yrotation Xrotation 
	JOINT LowerBack
	{
		OFFSET 0.000000 0.000000 0.000000
		CHANNELS 3 Zrotation Yrotation Xrotation
		JOINT Spine
		{
			OFFSET 0.028270 2.035590 -0.193380
			CHANNELS 3 Zrotation Yrotation Xrotation
			JOINT Spine1
			{
				OFFSET 0.056720 2.048850 -0.042750
				CHANNELS 3 Zrotation Yrotation Xrotation
				JOINT Neck
				{
					OFFSET 0.000000 0.000000 0.000000
					CHANNELS 3 Zrotation Yrotation Xrotation
					JOINT Neck1
					{
						OFFSET -0.054170 1.746240 0.172020
						CHANNELS 3 Zrotation Yrotation Xrotation
						JOINT Head
						{
							OFFSET 0.104070 1.761360 -0.123970
							CHANNELS 3 Zrotation Yrotation Xrotation
							End Site
							{
								OFFSET 0.000000 0.000000 0.000000
							}
						}
					}
				}
				JOINT LeftShoulder
				{
					OFFSET 0.000000 0.000000 0.000000
					CHANNELS 3 Zrotation Yrotation Xrotation
					JOINT LeftArm
					{
						OFFSET 3.362410 1.200890 -0.311210
						CHANNELS 3 Zrotation Yrotation Xrotation
						JOINT LeftForeArm
						{
							OFFSET 4.983000 -0.000000 -0.000000
							CHANNELS 3 Zrotation Yrotation Xrotation
							JOINT LeftHand
							{
								OFFSET 3.483560 -0.000000 -0.000000
								CHANNELS 3 Zrotation Yrotation Xrotation
								JOINT LeftFingerBase
								{
									OFFSET 0.000000 0.000000 0.000000
									CHANNELS 3 Zrotation Yrotation Xrotation
									JOINT LeftHandIndex1
									{
										OFFSET 0.715260 -0.000000 -0.000000
										CHANNELS 3 Zrotation Yrotation Xrotation
										End Site
										{
											OFFSET 0.000000 0.000000 0.000000
										}
									}
								}
								JOINT LThumb
								{
									OFFSET 0.000000 0.000000 0.000000
									CHANNELS 3 Zrotation Yrotation Xrotation
									End Site
									{
										OFFSET 0.000000 0.000000 0.000000
									}
								}
							}
						}
					}
				}
				JOINT RightShoulder
				{
					OFFSET 0.000000 0.000000 0.000000
					CHANNELS 3 Zrotation Yrotation Xrotation
					JOINT RightArm
					{
						OFFSET -3.136600 1.374050 -0.404650
						CHANNELS 3 Zrotation Yrotation Xrotation
						JOINT RightForeArm
						{
							OFFSET -5.241900 -0.000000 -0.000000
							CHANNELS 3 Zrotation Yrotation Xrotation
							JOINT RightHand
							{
								OFFSET -3.444170 -0.000000 -0.000000
								CHANNELS 3 Zrotation Yrotation Xrotation
								JOINT RightFingerBase
								{
									OFFSET 0.000000 0.000000 0.000000
									CHANNELS 3 Zrotation Yrotation Xrotation
									JOINT RightHandIndex1
									{
										OFFSET -0.622530 -0.000000 -0.000000
										CHANNELS 3 Zrotation Yrotation Xrotation
										End Site
										{
											OFFSET 0.000000 0.000000 0.000000
										}
									}
								}
								JOINT RThumb
								{
									OFFSET 0.000000 0.000000 0.000000
									CHANNELS 3 Zrotation Yrotation Xrotation
									End Site
									{
										OFFSET 0.000000 0.000000 0.000000
									}
								}
							}
						}
					}
				}
			}
		}
	}
}
}
MOTION
Frames: 9
Frame Time: 0.008333
-19.879704 16.064224 -0.703026 -24.151751 82.112382 8.143852 -9.624485 2.079947 -0.499530 -3.678142 2.420217 -3.129628 -8.124704 2.291058 0.965029 7.696321 6.631054 4.605980 -5.312600 -0.470853 2.688700 0.000000 0.000000 0.000000 -4.154871 4.529070 1.399382 -63.021527 10.116655 14.942794 -3.143303 -18.533679 -0.001706 0.266756 2.940968 0.007761 -0.034794 -0.076837 -0.000000 0.000000 0.000000 0.000000 0.000000 0.000000 0.000000 20.848011 6.970797 -1.739918 74.800713 27.183429 21.097796 1.992412 43.177001 0.007637 1.107660 10.461223 0.103166 0.012010 -0.228656 0.000000 0.000000 0.000000 0.000000 0.000000 0.000000 0.000000 
-19.718505 16.070953 -0.716578 -22.399235 82.488330 10.295883 -10.207023 1.971189 -0.336282 -3.805786 2.335424 -3.108231 -8.122321 2.202392 0.901312 7.813167 6.876953 4.835100 -5.338706 -0.473398 2.735814 0.000000 0.000000 0.000000 -4.151920 3.747317 1.488336 -62.591232 9.590520 15.124097 -3.220268 -17.002232 -0.002377 -0.084099 3.144548 -0.001443 -0.036170 -0.072551 -0.000000 0.000000 0.000000 0.000000 0.000000 0.000000 0.000000 21.137310 7.035023 -1.727292 75.182291 26.896448 20.906197 1.953336 42.633031 0.006869 1.039780 10.558028 0.097945 0.009364 -0.228857 0.000000 0.000000 0.000000 0.000000 0.000000 0.000000 0.000000 
-19.563371 16.085655 -0.731604 -20.480961 82.880737 12.593331 -10.742031 1.876733 -0.112735 -3.923524 2.261453 -3.067226 -8.103240 2.126276 0.851121 7.875853 7.159007 5.107956 -5.359526 -0.475615 2.791433 0.000000 0.000000 0.000000 -4.180200 2.943239 1.572587 -62.168124 8.815248 15.315028 -3.298724 -15.349065 -0.003035 -0.432007 3.395970 -0.012041 -0.038004 -0.066623 -0.000000 0.000000 0.000000 0.000000 0.000000 0.000000 0.000000 21.345860 7.114827 -1.724916 75.547436 26.649963 20.609556 1.913853 41.964511 0.006009 0.955554 10.652420 0.090920 0.006760 -0.228070 0.000000 0.000000 0.000000 0.000000 0.000000 0.000000 0.000000 
-19.414335 16.107840 -0.748690 -18.582432 83.252192 14.847162 -11.203164 1.805239 0.159825 -4.027118 2.205575 -3.007447 -8.069783 2.070232 0.821551 7.878197 7.469047 5.413843 -5.375829 -0.477453 2.852948 0.000000 0.000000 0.000000 -4.242601 2.164101 1.648045 -61.755213 7.766268 15.492368 -3.375641 -13.581606 -0.003641 -0.752397 3.709478 -0.023534 -0.040221 -0.058906 -0.000000 0.000000 0.000000 0.000000 0.000000 0.000000 0.000000 21.469556 7.209356 -1.733886 75.896603 26.460111 20.238454 1.876271 41.167807 0.005112 0.861604 10.735258 0.082792 0.004328 -0.226136 0.000000 0.000000 0.000000 0.000000 0.000000 0.000000 0.000000 
-19.270684 16.136909 -0.768151 -16.850215 83.573834 16.906453 -11.580507 1.762388 0.466380 -4.115444 2.173116 -2.933284 -8.026013 2.039255 0.809967 7.821877 7.796991 5.750097 -5.389413 -0.479048 2.920283 0.000000 0.000000 0.000000 -4.342108 1.395437 1.713239 -61.354270 6.503618 15.541379 -3.449169 -11.754356 -0.004168 -1.014986 4.103495 -0.035421 -0.042643 -0.049478 -0.000000 0.000000 0.000000 0.000000 0.000000 0.000000 0.000000 21.518087 7.314256 -1.749079 76.225018 26.332740 19.824660 1.843049 40.247196 0.004251 0.773832 10.789719 0.074861 0.002075 -0.222979 0.000000 0.000000 0.000000 0.000000 0.000000 0.000000 0.000000 
-19.132221 16.172090 -0.790283 -15.485837 83.818125 18.564814 -11.866620 1.752278 0.793344 -4.187294 2.168109 -2.846742 -7.975159 2.037282 0.821588 7.710368 8.143294 6.103996 -5.400268 -0.480296 2.990536 0.000000 0.000000 0.000000 -4.477152 0.697350 1.765112 -60.960392 4.997679 15.474952 -3.514805 -9.876678 -0.004576 -1.175749 4.571197 -0.045602 -0.045038 -0.038268 -0.000000 0.000000 0.000000 0.000000 0.000000 0.000000 0.000000 21.494008 7.437883 -1.772274 76.531926 26.263553 19.381503 1.815475 39.221179 0.003490 0.712231 10.802939 0.069229 -0.000101 -0.218562 0.000000 0.000000 0.000000 0.000000 0.000000 0.000000 0.000000 
-18.997795 16.212538 -0.815031 -14.574493 83.976877 19.734760 -12.069311 1.772890 1.128219 -4.244239 2.189362 -2.750867 -7.921799 2.062784 0.856185 7.555267 8.497350 6.466816 -5.410007 -0.481262 3.061997 0.000000 0.000000 0.000000 -4.644901 0.078607 1.802733 -60.566266 3.280910 15.253560 -3.568853 -7.998068 -0.004870 -1.190341 5.104311 -0.051279 -0.047063 -0.025447 -0.000000 0.000000 0.000000 0.000000 0.000000 0.000000 0.000000 21.416920 7.572898 -1.800775 76.811392 26.250583 18.937526 1.794944 38.109702 0.002888 0.696488 10.759625 0.067596 -0.002305 -0.212878 0.000000 0.000000 0.000000 0.000000 0.000000 0.000000 0.000000 
-18.866961 16.257408 -0.842191 -14.139421 84.053617 20.391839 -12.199308 1.818334 1.462263 -4.288147 2.232050 -2.646373 -7.870369 2.110873 0.918463 7.371274 8.846275 6.822840 -5.419893 -0.481899 3.130906 0.000000 0.000000 0.000000 -4.840600 -0.417551 1.824528 -60.160127 1.342091 14.931358 -3.606831 -6.156948 -0.005084 -1.021905 5.678012 -0.048450 -0.048360 -0.011248 0.000000 0.000000 0.000000 0.000000 0.000000 0.000000 0.000000 21.307673 7.708243 -1.835705 77.059482 26.294681 18.522953 1.782324 36.937910 0.002480 0.743697 10.649692 0.071462 -0.004640 -0.205915 0.000000 0.000000 0.000000 0.000000 0.000000 0.000000 0.000000 
-18.738864 16.305828 -0.871388 -14.136477 84.062255 20.580260 -12.266956 1.880879 1.786403 -4.320417 2.289453 -2.538785 -7.825171 2.174165 0.995941 7.176952 9.190587 7.176169 -5.429720 -0.482316 3.199394 0.000000 0.000000 0.000000 -5.060427 -0.848232 1.834754 -59.733539 -0.704518 14.461475 -3.626926 -4.450899 -0.005297 -0.637578 6.261628 -0.032220 -0.048567 0.003656 0.000000 0.000000 0.000000 0.000000 0.000000 0.000000 0.000000 21.186121 7.844601 -1.870239 77.268196 26.366083 18.139613 1.777448 35.742341 0.002279 0.874311 10.461487 0.082629 -0.007350 -0.197824 0.000000 0.000000 0.000000 0.000000 0.000000 0.000000 0.000000 
